/* XPM */
static char *badec7a0ce534fd6fe8b42531c958723[] = {
/* columns rows colors chars-per-pixel */
"98 95 85 1 ",
"  c #0E0E0E",
". c #111312",
"X c #141918",
"o c #171F1C",
"O c #19201C",
"+ c #1C221C",
"@ c #1F241C",
"# c #1B2521",
"$ c #21302B",
"% c #26342B",
"& c #2B382B",
"* c #303C2C",
"= c #2A4139",
"- c #2D4339",
"; c #2F4539",
": c #324739",
"> c #33473A",
", c #304A3A",
"< c #344939",
"1 c #34483B",
"2 c #374A3A",
"3 c #354E3B",
"4 c #35493C",
"5 c #384B3A",
"6 c #394C3A",
"7 c #3B4E3B",
"8 c #3C4E3A",
"9 c #3C4F3E",
"0 c #37503C",
"q c #37533C",
"w c #3A513B",
"e c #3E503A",
"r c #38513C",
"t c #3D533C",
"y c #3F523F",
"u c #39553C",
"i c #39553D",
"p c #3A563D",
"a c #3C573C",
"s c #3B593D",
"d c #3D5C3D",
"f c #41523A",
"g c #42533B",
"h c #44553D",
"j c #46563E",
"k c #47573F",
"l c #415B3C",
"z c #415B3E",
"x c #465A3D",
"c c #475B3D",
"v c #475D3D",
"b c #43653F",
"n c #4A613E",
"m c #4B643E",
"M c #48693F",
"N c #4C683E",
"B c #435440",
"V c #465741",
"C c #455E40",
"Z c #485840",
"A c #4A5A42",
"S c #495D40",
"D c #456240",
"F c #4B6240",
"G c #4D6242",
"H c #4D6440",
"J c #4F6643",
"K c #4A6B41",
"L c #4D6D41",
"P c #506943",
"I c #506A43",
"U c #516F41",
"Y c #526D43",
"T c #4D7041",
"R c #527141",
"E c #537243",
"W c #547143",
"Q c #507842",
"! c #577944",
"~ c #587D42",
"^ c #587D44",
"/ c #5A8144",
"( c #5B8045",
") c #5E8845",
"_ c #639346",
/* pixels */
"$=:6fnR((((!WPPPIE!^!WYIIIIIYE!^EGf6:=:6fnQ))))))))))Qmg62=:6fxnYW!^!WPW!/(((!WPPPYPPPYIPW!^WHf*@ ",
"$=:6fcHYYYYYPGGGGIIYYGGGGGGGGGIYHxf6:=:6gnR^^^^^^^^^~Rxg6:=:6fxxGPPYPPAPYYYYYPPGGGGGGGGGGHPYJZf*@ ",
"$=:6fhZAZAAAAAAAAAAAAAAAAAAAAAAAVhf6:=:6fcPWRWWREEEERPcf6:=:2fhZAAAAAAAAAAAAAAAAAAAAAAAAAAAAZhf*@ ",
"%:28hhZAZAAAAAAAAAAAAAAAAAAAAAAAVhf6:=:6fcGPPPRPYPPPPGcf6:=:6fhVAAAAAAAAAAAAAAAAAAAAAAAAAAAAxhf*@ ",
"&68efhZZAAAAAAAAAAAAAAAAAAAAAAAAVhf6:=:6fhSGGGGHGGGGGShf6:=:6fhxAAAAAAAAAAAAAAAAAAAAAAAAAAAAZhf*@ ",
"*ffffhZZAAAAAAAAAAAAAAAAAAAAAAAAkhf6:=:6fhZZAAAAZZAAAZhf6:=:6fhZAAAAAAAAAAAAAAAAAAAAAAAAAAAAhhf*@ ",
"*ffffhhZAAAAAAAAAAAAAAAAAAAAAAAAkhf6:=:6fhZAAAAAAAAAAZht6:=:6fhhAAAAAAAAAAAAAAAAAAAAAAAAAAAAZhf*@ ",
"*ffffhZZAAAAAAAAAAAAAAAAAAAAAAAAkhf6:=:6ghZAAAAAAAAAAZhg6:=:6fhZAAAAAAAAAAAAAAAAAAAAAAAAAAAZkhf*@ ",
"*fffhhZAAAAAAAAAAAAAAAAAAAAAAAAAkhf6:=:6fhhZAAAAAAAAZkhf6:=:6fhVAAAAAAAAAAAAAAAAAAAAAAAAAAAAVhf*@ ",
"&68efhZAAAAAAAAAAAAAAAAAAAAAAAAAkhf6:=:6fhZAAAAAAAAAAZhf86:68fhkAAAAAAAAAAAAAAAAAAAAAAAAAAAAZhf*@ ",
"%:56fhZZAAAAAAAAAAAAAAAAAAAAAAAAkhf6:=:6ghZZAAAAAAAAAZhf88688fhkAAAAAAAAAAAAAAAAAAAAAAAAAAAAhhf*@ ",
"$=:5fhZAAAAAAAAAAAAAAAAAAAAAAAAAkhf6:=:6fhZZAAAAAAAAZZhfffffffhkAAAAAAAAAAAAAAAAAAAAAAAAAAAAZhf*@ ",
"$=:5fhZZAAAAAAAAAAAAAAAAAAAAAAAAkhf86:68fhZZAAAAAAAAAZhf8668efhkAAAAAAAAAAAAAAAAAAAAAAAAAAAAZBf*@ ",
"$=16fhhZAAAAAAAAAAAAAAAAAAAAAAAAkhfe668efhZZAAAAAAAAZZhf86:68fhkAAAAAAAAAAAAAAAAAAAAAAAAAAAAZhf*@ ",
"$=:6fhZAAAAAAAAAAAAAAAAAAAAAAAAAkhfffffffhZZAZAZAZAAkZhf66=:6fhkAAAAAAAAAAAAAAAAAAAAAAAAAAAAZhg*@ ",
"$=:6hhZAAAAAAAAAAAAAAAAAAAAAAAAAkhfe868efhhZZZZZZkZZkhfe6:=>6fhkAAAAAAAAAAAAAAAAAAAAAAAAAAAAhhf*@ ",
"$=:6fhVZAAAAAAAAAAAAAAAAAAAAAAAAkhh66>66ffhhhhhhhhhhhfff62=:6fhhAAAAAAAAAAAAAAAAAAAAAAAAAAAAVhf*@ ",
"$=:6fhZZAAAAAAAAAAAAAAAAAAAAAAAAkhe6:=>>ffffffffffffffff6:=:6fhZAAAAAAAAAAAAAAAAAAAAAAAAAAAAkhf*@ ",
"$=:6fhZZAAAAAAAAAAAAAAAAAAAAAAAAkhf6:=:6688fffffffffffff2:=:6fhhAAAAAAAAAAAAAAAAAAAAAAAAAAAAkhf*@ ",
"$=:6fhZAAAAAAAAAAAAAAAAAAAAAAAAAkhe6:==;:68fffffffffffff6:=:6fhZAAAAAAAAAAAAAAAAAAAAAAAAAAZZkhf*@ ",
"$=:6fhZZAAAAAAAAAAAAAZZAAAAAAZZZkhg6:====:6fefffffffffff6:=:6fhZAAAAAAAAAAAAAAAAAAAAAAAAAAAAZhf*@ ",
"$=:6fhhZZZAAAAAAAVBBVByByyyyyyVye666:====:>66066666666652-=:6fhhAAAAAAAAAAAAAAAAAAAAAAAAAZZZhhf*@ ",
"$=:6fhhhhZAAAAAAAB64444444444464>>>;======::1::1>>>>>:::--=:6fhZAAAAAAAAAAAAAAAAAAAAAAAAZZZhhff*@ ",
"$=:6ffffhZAAAAAZAy4=============================-==========26fhZAAAAAAAAAAAAAAAAAAAAAAAAZZhffff*@ ",
"$=:6ffffghxkhVZhVt4=--:5udddzdddsszdddddddddddddddddddddu:=:3ghxAAAAAAAAAAAAAAAAAAAAAAAAZZhffff*@ ",
"$=:6ffffghhhhhhhB6:=:26zMQQQQQQQQQQQQQQQQQQQQQQQQQQQQQQQDq=35ehVAZAAAAAAAAAAAAAZAAAAAAAAZVhffff*@ ",
"$=:6gfgtffffffffh5:=:6eK^_______________________________Qd=:6fhkZZZZAZAZAAAAAAZZAZAZZZAAZZhffff*@ ",
"$=:26665666666662::=:6fnR//^(((((((((((((((((((((((((((^Mu=:6fhhZZZVZZZZZZhZZZVhZZZZZZZZVhhff86&+ ",
"$=--::::::::::::::==65fcmYYYYYYYYYYYRYYYYYYYYYYYYYYYYYYYCr=:6ffhhhhhhhhhhhhhhhhhhhhhhhhhhhff86:%o ",
"$===================:6fhZZAAAAAAAAAAcZAAAAAAAAAAAAAAAAAAB4=:6fffffffffffgfffffffffffhfffffff6:=$o ",
"$=--:5uddsq6rr02:-==:6fhZZAAAAAAAAAAAAAAAAAAAAAAAAAAAAAAB644666666666666666666666666666666662-=$o ",
"$=-26lMQNMbDDDzt5::=:6fhZZAAAAAAAAAAAAAAAAAAAAAAAAAAAAAZVVt82::::::::::::::2:::::::::::6:::::==$o ",
"$=26fN^_)^EERRPcf6:=:6fhZAAAAAAAAAAAAAAAAAAAAAAAAAAAAAAAAAZB4==================================$O ",
"$=:6fGW(!WYPYPncf6:=:6fhZAAAAAAAAAAAAAAAAAAAAAAAAAAAAAAAAAZh64-==--:qpdsqqqq00rrrrrrrrrrrrrr02:%O ",
"$=:6fcHYPJGGGGShf6:=:6fhkZAAAAAAAAAAAAAAAAAAAAAAAAAAAAAAAAAZh66-=-26lMQRLDbcDDDDDDDDDDDDDDDDds6&+ ",
"$=:6fhZAAZAAAZkhf6:=:6fhZAAAAAAAAAAAAAAAAAAAAAAAAAAAAAAAAAAZhg4:=:6fm~_)^RRREEEEEEEEEEEEEEEEHcf*@ ",
"$=:5fhhZAAAAAAZhf6:=:6ehZAAAAAAAAAAAAAAAAAAAAAAAAAAAAAAAAAZZhf2:=:6fmW)(!REEEEEEEEEEEEEEEEEEPcf*@ ",
"$=,5fhZZAAAAAAZhf6:=:6fhkZAAAAAAAAAAAAAAAAAAAAAAAAAAAAAAAAZZhf6:=:6fnR^!EEEEEEEEEEEEEEEEEEEENcf*@ ",
"$=:6fhZAAAAAAAkhf6:=:6fhZAAAAAAAAAAAAAAAAAAAAAAAAAAAAAAAAAZZhf6:=:6fDmRWEEEEEEEEEEEEEEEEWERRNcf*@ ",
"$=:6fVZAAAAAAZkhf6:=66fhZAAAAAAAAAAAAAAAAAAAAAAAAAAAAAAAAAZchf62:68hZHPPYPPPPPYIIIIIIIIYPPUPGcf*@ ",
"$=:6fhxZAAAAAAkhf6:=:6fhZZAAAAAAAAAAAAAAAAAAAAAAAAAAAAAAAAAZhg88688fhSHGGGGGGGGGGIGGGGGGGGGGShf*@ ",
"$=:6fhZAAAAAAAZhf6:=:6fhZAAAAAAAAAAAAAAAAAAAAAAAAAAAAAAAAAZZhgffffffhkAAAAAAAAAAZZAAAAAAAAAAkhf*@ ",
"%:28ghZZAAAAAAZhf6:=:6fhZZAAAAAAAAAAAAAAAAAAAAAAAAAAAAAAAAAZhfe8688fhkZAAAAAAAAAAAAAAAAAAAAAZhf*@ ",
"&66efhZAAAAAAAZhf6:=:6fhZAAAAAAAAAAAAAAAAAAAAAAAAAAAAAAAAAAZhf86>68fhkAAAAAAAAAAAAAAAAAAAAAAhhf*@ ",
"*ffffhVZAAAAAZkhf6:-:6fhZZAAAAAAAAAAAAAAAAAAAAAAAAAAAAAAAAZkhf6>=:6fhZAAAAAAAAAAAAAAAAAAAAAAVhf*@ ",
"&688fhZAAAAAAZkhf82>66fhZAAAAAAAAAAAAAAAAAAAAAAAAAAAAAAAAAAZhf6>=:6fhZAAAAAAAAAAAAAAAAAAAAAAVhf*@ ",
"%>68fhZZAAAAAAZhf88688fhZZAAAAAAAAAAAAAAAAAAAAAAAAAAAAAAAAZZhf6>=:6fhZAAAAAAAAAAAAAAAAAAAAAAVhf*@ ",
"$=:6fhZAAAAAAAhhfffffffhZAAAAAAAAAAAAAAAAAAAAAAAAAAAAAAAAAkVhf0>=:6fhZAAAAAAAAAAAAAAAAAAAAAAVhf*@ ",
"$=:6fhkZAAAAAAZhfe8688fhhZAAAAAAAAAAAAAAAAAAAAAAAAAAAAAAAAAZhf66=:6fhhAAAAAAAAAAAAAAAAAAAAAAkhf*@ ",
"$=:6fhkZAAAAAAZhf86:68fhZZAAAAAAAAAAAAAAAAAAAAAAAAAAAAAAAAZkhf6:=:6fhZAAAAAAAAAAAAAAAAAAAAAAkhf*@ ",
"$=:6fhkkAAAAAAZhf6:=:6fhZAAAAAAAAAAAAAAAAAAAAAAAAAAAAAAAAAAZhf6:=:6fhkZAAAAAAAAAAAAAAAAAAAAAkhf*@ ",
"$=:6fhkZZZAAAZkhf6:=:6fhZAAAAAAAAAAAAAAAAAAAAAAAAAAAAAAAAAAZhe6:=:6fhkZAAAAAAAAAAAAAAAAAAAZZkhf*@ ",
"$=:6ffhhkZAZAAZhf6:=:6fhkZAAAAAAAAAAAAAAAAAAAAAAAAAAAAAAAAAkhf6:=:6fhZAAAAAAAAAAAAAAAAAAAAAAkhf*@ ",
"$=:6ffffhZAkAAZhf6:=:6fhZAAAAAAAAAAAAAAAAAAAAAAAAAAAAAAAAAAkhf6:=:6fhZAAAAAAAAAAAAAAAAAAAAAAkhf*@ ",
"%:68ffffhhkkkkhhf6:=:6fhZAAAAAAAAAAAAAAAAAAAAAAAAAAAAAAAAAAZhf86>68fhZAAAAAAAAAAAAAAAAAAAAAAVhf*@ ",
"&688ffffhhhhhhhhf6:=:6fhkZAAAAAAAAAAAAAAAAAAAAAAAAAAAAAAAAAhhf86688fhZAAAAAAAAAAAAAAAAAAAAAAZhf*@ ",
"*ffffffffffffffff6:=:6fhZZZZZZZZAAZZAZAAZZAZAAZZAZAZAZZZAAAkhfffffffhZAAAAAAAAAAAAAAAAAAAAAAZhf*@ ",
"*ffffffffffffffff86::668hZZZZZZVZZZZZZZZZhZZZZkVZZZZZZZkZZAkhff8688fhZAAAAAAAAAAAAAAAAAAAAAAZhf*@ ",
"*ffffffffffffffff8862>:6thhhhhhhhhhhhhhhhhhhhhhhhhhhhhhhkZAkhf86:68fhkZAAAAAAAAAAAAAAAAAAAAZZhf*@ ",
"*fffffffffffffffffff6:=:6ffffhfffffffffffffgggffffffffffhkAkhf6:=:6fhkZAAAAAAAAAAAAAAAAAAAAZZhf*@ ",
"&66666666666666606664:=:6666666666666666666666666668ffffhhhhhf6:=:6fhhcZZAAAAAAAAAAAAAAAAZZZhhf*@ ",
"%:::::::::::::::>>::=====2::::::::::2:::::::::::6:68ffffhhhhff6:=:6ffhhZZAAAAAAAAAAAAAAAZZZhhff*@ ",
"$==================-==========================-==-:6ffffffffff6:=:6ffffhZZAAZAZZAAZAZZAAZZhffff*@ ",
"$=-::5uddsdddddurrrrrrrusdsurrrrrrrrrrr0rrrrusddsds6688fffffff6:=:6ffffhhZZZZZZZZZZZZZZZZhhffff*@ ",
"$=::6zMQQQQQQQTKDDDDDDDKTQTKDDDDDDDDDDDDDDDDKLEQQQDd:4qfffffff6:=:6ggfffghhhhhhhhhhhhhhhhhfffff*@ ",
"$=:6fM~_______)^RWWWWWW^)_)^EEEEWWWEEEEEEEEE^)____Qd=:6fffffff6:=:6gfffffffffffffffffffffffffff*@ ",
"$=:5fmR/((((((!WPPUPPYPY!(!WPPPPPPYPYPPYYPPPE!(//(Ld::668effff6:=-26eefffffffffffffffffffffffff*@ ",
"$=:5fhmRYYYYYYPJHGGGGGGPPYPPGGGGGGGHHGGGGGGGIIYYYYGh622:66ffff6:=--:26fffffffffffffffffffffffff*@ ",
"$=:6fhkZAAAAAAAAZAAAAAAAAAAAZAAAAAAAAAAAZAAAAAAAAZVhf6:=:6gfff62====:6ffgffffffffffffffffffffff*+ ",
"$-:6fhZAAAAAAAAAAAAAAAAAAAAAAAAAAAAAAAAAAAAAAAAAAZkhf6:=-266662:====;26666666666666666666666666&+ ",
"$=:6ghZZAAAAAAAAAAAAAAAAAAAAAAAAAAAAAAAAAAAAAAAAAAchf6:=--::::======;;::::,>:>11:::::::::::::::%O ",
"$=>6fhZAAAAAAAAAAAAAAAAAAAAAAAAAAAAAAAAAAAAAAAAAAAhhf6:========================================$O ",
"%:68fhkAAAAAAAAAAAAAAAAAAAAAAAAAAAAAAAAAAAAAAAAAAAZhf6:==-:5udduqqqq00rrrrrr00rrrrrrrrrr0usdp0:%O ",
"&688fhkZAAAAAAAAAAAAAAAAAAAAAAAAAAAAAAAAAAAAAAAAAAZhf6:=:66zKQLKbvcbDDDDDDDDDDDDDDDDDDDDcKTQKd6%+ ",
"&ffffhZAAAAAAAAAAAAAAAAAAAAAAAAAAAAAAAAAAAAAAAAAAZZhf6:=:6fm^_)^EERREEWWEEEEEEEEEEEEWEWWE^)_^Nf*@ ",
"&68ffhZAAAAAAAAAAAAAAAAAAAAAAAAAAAAAAAAAAAAAAAAAAZZhf66:28fnW^!YIYPPIIYPIIYPIIIIPPYPPRPPLW!(Rnf*@ ",
"%>68fhkZAAAAAAAAAAAAAAAAAAAAAAAAAAAAAAAAAAAAAAAAAAZhf8868efcmRPPGGGGGGGGGGGGGGGGGGGGGGGGGPPYmVf*@ ",
"$=:6fhZAAAAAAAAAAAAAAAAAAAAAAAAAAAAAAAAAAAAAAAAAAAZhfffefffhZZAAZZAAAAAAAAAAAAAAZAAAAAAAZAAAZhf*@ ",
"$=:6fhVZAAAAAAAAAAAAAAAAAAAAAAAAAAAAAAAAAAAAAAAAAAZhff868efhZZAAAAAAAAAAAAAAAAAAAAAAAAAAAAAAchf*@ ",
"$=:6fhkZAAAAAAAAAAAAAAAAAAAAAAAAAAAAAAAAAAAAAAAAAAZhf86:28fhZZAAAAAAAAAAAAAAAAAAAAAAAAAAAAZZZhf*@ ",
"$=:6fhZAAAAAAAAAAAAAAAAAAAAAAAAAAAAAAAAAAAAAAAAAAAkhf6:=26fhZAAAAAAAAAAAAAAAAAAAAAAAAAAAAAAAZhg*@ ",
"$=:6fhkAAAAAAAAAAAAAAAAAAAAAAAAAAAAAAAAAAAAAAAAAAZkhf82:68fhkAAAAAAAAAAAAAAAAAAAAAAAAAAAAAAAZhf*@ ",
"$=:6fhkZAAAAAAAAAAAAAAAAAAAAAAAAAAAAAAAAAAAAAAAZAAZhf8866efhkZAAAAAAAAAAAAAAAAAAAAAAAAAAAAAAVhf*@ ",
"$=66fhVZAAAAAAAAAAAAAAAAAAAAAAAAAAAAAAAAAAAAAAAZAAhhfffffffhZAAAAAAAAAAAAAAAAAAAAAAAAAAAAAAAVhf*@ ",
"$=:6fhhZZZAAAAAAAAAAAAAAAAAAAAAAAAAAAAAAAAAAZZkkZZhhfe8688fhhZVZAAAAAAAAAAAAAAAAAAAAAAAAAAAAhhf*@ ",
"$=:6fghhZZAAAAAAAAAAAAAAAAAAAAAAAAAAAAAAAAAAkZhhhhhhf86:68ffhhkkAAAAAAAAAAAAAAAAAAAAAAAAAAAAZhf*@ ",
"$=:6ffffhZAAZZZZAZSZAZAZAAZAAZAAZAAZAAZAAZAZkhfffffff6:=:6ffffhxAZAAZZAZAZAAZZAZAZAZAZAZAAZZhhf*@ ",
"$=-2688ghhZZZZZZVZZZZZZZVZVZZZZZkkZVZZhhZZZZkhfffffff6:=-2686fhhZZZZZZZZZZZZZZZhZZZZZZZZZZZZhhf*@ ",
"$==::26ffhhhhhhhhhhhhhhhhhhhhhhhhhhhhhhhhhhhhffffffff6:==::5efghhhhhhhhhhhhhhhhhhhhhhhhhhhhhhff*@ ",
"$====:6ffffffffffffffffffffffffffffffffffffffffffffff6:====:6ffffffffffffffffffffffffffffhfffff*+ ",
"$====-656666666666666666666666666666666666666666666662:====:20556666666666666666666666666666666&+ ",
"$====--::::::::::::::::::::::::::::::::::::::::::::::--=====-:::2::::::::::::::::::::::::::::::%O ",
"$==============================================================================================$o ",
"+$$$$$$$$$$$$$$$$$$$$$$$$$$$$$$$$$$$$$$$$$$$$$$$$$$$$$$$$$$$$$$$$$$$$$$$$$$$$$$$$$$$$$$$$$$$$$$#X ",
"XooooooooooooooooooooooooooooooooooooooooooooooooooooooooooooooooooooooooooooooooooooooooooooooX. "
};
