/* XPM */
static char * ceiling_2_xpm[] = {
"32 32 5 1",
" 	c None",
".	c #3C3020",
"+	c #30281C",
"@	c #242018",
"#	c #493824",
".+.+@++..+.+@+#+.+.+@++..+.+@+#+",
"#+.+@++#.+#+@+.+#+.+@++#.+#+@+.+",
"#+++@++#.+#+@+.+#+++@++#.+#+@+.+",
"#.++@+.#...+@+.+#.++@+.#...+@+.+",
"#.++@+.#+..+@+++#.++@+.#+..+@+++",
".+++@+..+#.+@++..+++@+..+#.+@++.",
"++++@++.+#.+@+++++++@++.+#.+@+++",
"@@@@@++.+#.+@@@@@@@@@++.+#.+@@@@",
"++++@++++#++@+++++++@++++#++@+++",
"+.++@++++.++@++.+.++@++++.++@++.",
"+#++@+.+..++@++.+#++@+.+..++@++.",
"+#.+@+.+.#++@++.+#.+@+.+.#++@++.",
"+#.+@+.+.#++@++++#.+@+.+.#++@+++",
"+..+@+#++#++@+.++..+@+#++#++@+.+",
"..++@+#.+#.+@+.+..++@+#.+#.+@+.+",
".#++@+#.+..+@+#+.#++@+#.+..+@+#+",
".#++@+#...#+@+#+.#++@+#...#+@+#+",
".#.+@+#+..#+@+...#.+@+#+..#+@+..",
"+#.+@+.+.+#+@+..+#.+@+.+.+#+@+..",
"+..+@+.+#+.+@+.#+..+@+.+#+.+@+.#",
"+.++@+++#+.+@+.#+.++@+++#+.+@+.#",
"+.++@++.#+.+@+.#+.++@++.#+.+@+.#",
"++++@++.#+++@++#++++@++.#+++@++#",
"++++@+++..++@++.++++@+++..++@++.",
".+.+@+++++++@++..+.+@+++++++@++.",
".+.+@@@@@@@@@++#.+.+@@@@@@@@@++#",
".+.+@+++++++@++#.+.+@+++++++@++#",
"++#+@++.+.++@++#++#+@++.+.++@++#",
"+.#+@++#+.++@+.#+.#+@++#+.++@+.#",
"+.#+@+.#+.++@+..+.#+@+.#+.++@+..",
"..#+@+.#++++@+#...#+@+.#++++@+#.",
".+#+@+..++.+@+#..+#+@+..++.+@+#."};
