/* XPM */
static char *_be0f252fc954f1fb1993c88b211da3e[] = {
/* columns rows colors chars-per-pixel */
"64 64 4 1 ",
"  c #2D281E",
". c #3C3223",
"X c #4B3C28",
"o c #5A462D",
/* pixels */
"....... ..oX.X. ....... ..oX.X. ....... ..oX.X. ....... ..oX.X. ",
"..X.X.. ..o..o. ..X.X.. ..o..o. ..X.X.. ..o..o. ..X.X.. ..o..o. ",
"..o.X.. .Xo.Xo. ..o.X.. .Xo.Xo. ..o.X.. .Xo.Xo. ..o.X.. .Xo.Xo. ",
".Xo.X.. .XX.Xo. .Xo.X.. .XX.Xo. .Xo.X.. .XX.Xo. .Xo.X.. .XX.Xo. ",
".Xo.... .oXXXo. .Xo.... .oXXXo. .Xo.... .oXXXo. .Xo.... .oXXXo. ",
".XX..X. .oXX.o. .XX..X. .oXX.o. .XX..X. .oXX.o. .XX..X. .oXX.o. ",
"..XX.X. .o.X.X. ..XX.X. .o.X.X. ..XX.X. .o.X.X. ..XX.X. .o.X.X. ",
"..oX.o. .X.o.X. ..oX.o. .X.o.X. ..oX.o. .X.o.X. ..oX.o. .X.o.X. ",
"..oX.o. .X.o... ..oX.o. .X.o... ..oX.o. .X.o... ..oX.o. .X.o... ",
".XoXXX. .X.oX.. .XoXXX. .X.oX.. .XoXXX. .X.oX.. .XoXXX. .X.oX.. ",
".Xo.XX. ...oX.. .Xo.XX. ...oX.. .Xo.XX. ...oX.. .Xo.XX. ...oX.. ",
".XX.oX. ..XX... .XX.oX. ..XX... .XX.oX. ..XX... .XX.oX. ..XX... ",
"..X.oX. ....... ..X.oX. ....... ..X.oX. ....... ..X.oX. ....... ",
"..X.oX.         ..X.oX.         ..X.oX.         ..X.oX.         ",
"....o.. ....... ....o.. ....... ....o.. ....... ....o.. ....... ",
"....X.. ..X.X.. ....X.. ..X.X.. ....X.. ..X.X.. ....X.. ..X.X.. ",
".X.XX.. ..X.o.. .X.XX.. ..X.o.. .X.XX.. ..X.o.. .X.XX.. ..X.o.. ",
".X.Xo.. ..X.oX. .X.Xo.. ..X.oX. .X.Xo.. ..X.oX. .X.Xo.. ..X.oX. ",
".X.Xo.. ....oX. .X.Xo.. ....oX. .X.Xo.. ....oX. .X.Xo.. ....oX. ",
".o..o.. .X..XX. .o..o.. .X..XX. .o..o.. .X..XX. .o..o.. .X..XX. ",
".oX.oX. .X.XX.. .oX.oX. .X.XX.. .oX.oX. .X.XX.. .oX.oX. .X.XX.. ",
".oX.XX. .o.Xo.. .oX.XX. .o.Xo.. .oX.XX. .o.Xo.. .oX.XX. .o.Xo.. ",
".oXXXo. .o.Xo.. .oXXXo. .o.Xo.. .oXXXo. .o.Xo.. .oXXXo. .o.Xo.. ",
".o.XXo. .XXXoX. .o.XXo. .XXXoX. .o.XXo. .XXXoX. .o.XXo. .XXXoX. ",
".X.X.o. .XX.oX. .X.X.o. .XX.oX. .X.X.o. .XX.oX. .X.X.o. .XX.oX. ",
".X.o.X. .Xo.XX. .X.o.X. .Xo.XX. .X.o.X. .Xo.XX. .X.o.X. .Xo.XX. ",
"...o.X. .Xo.X.. ...o.X. .Xo.X.. ...o.X. .Xo.X.. ...o.X. .Xo.X.. ",
"..Xo.X. .Xo.X.. ..Xo.X. .Xo.X.. ..Xo.X. .Xo.X.. ..Xo.X. .Xo.X.. ",
"..Xo... ..o.... ..Xo... ..o.... ..Xo... ..o.... ..Xo... ..o.... ",
"...XX.. ..X.... ...XX.. ..X.... ...XX.. ..X.... ...XX.. ..X.... ",
"....... ..XX.X. ....... ..XX.X. ....... ..XX.X. ....... ..XX.X. ",
"        ..oX.X.         ..oX.X.         ..oX.X.         ..oX.X. ",
"....... ..oX.X. ....... ..oX.X. ....... ..oX.X. ....... ..oX.X. ",
"..X.X.. ..o..o. ..X.X.. ..o..o. ..X.X.. ..o..o. ..X.X.. ..o..o. ",
"..o.X.. .Xo.Xo. ..o.X.. .Xo.Xo. ..o.X.. .Xo.Xo. ..o.X.. .Xo.Xo. ",
".Xo.X.. .XX.Xo. .Xo.X.. .XX.Xo. .Xo.X.. .XX.Xo. .Xo.X.. .XX.Xo. ",
".Xo.... .oXXXo. .Xo.... .oXXXo. .Xo.... .oXXXo. .Xo.... .oXXXo. ",
".XX..X. .oXX.o. .XX..X. .oXX.o. .XX..X. .oXX.o. .XX..X. .oXX.o. ",
"..XX.X. .o.X.X. ..XX.X. .o.X.X. ..XX.X. .o.X.X. ..XX.X. .o.X.X. ",
"..oX.o. .X.o.X. ..oX.o. .X.o.X. ..oX.o. .X.o.X. ..oX.o. .X.o.X. ",
"..oX.o. .X.o... ..oX.o. .X.o... ..oX.o. .X.o... ..oX.o. .X.o... ",
".XoXXX. .X.oX.. .XoXXX. .X.oX.. .XoXXX. .X.oX.. .XoXXX. .X.oX.. ",
".Xo.XX. ...oX.. .Xo.XX. ...oX.. .Xo.XX. ...oX.. .Xo.XX. ...oX.. ",
".XX.oX. ..XX... .XX.oX. ..XX... .XX.oX. ..XX... .XX.oX. ..XX... ",
"..X.oX. ....... ..X.oX. ....... ..X.oX. ....... ..X.oX. ....... ",
"..X.oX.         ..X.oX.         ..X.oX.         ..X.oX.         ",
"....o.. ....... ....o.. ....... ....o.. ....... ....o.. ....... ",
"....X.. ..X.X.. ....X.. ..X.X.. ....X.. ..X.X.. ....X.. ..X.X.. ",
".X.XX.. ..X.o.. .X.XX.. ..X.o.. .X.XX.. ..X.o.. .X.XX.. ..X.o.. ",
".X.Xo.. ..X.oX. .X.Xo.. ..X.oX. .X.Xo.. ..X.oX. .X.Xo.. ..X.oX. ",
".X.Xo.. ....oX. .X.Xo.. ....oX. .X.Xo.. ....oX. .X.Xo.. ....oX. ",
".o..o.. .X..XX. .o..o.. .X..XX. .o..o.. .X..XX. .o..o.. .X..XX. ",
".oX.oX. .X.XX.. .oX.oX. .X.XX.. .oX.oX. .X.XX.. .oX.oX. .X.XX.. ",
".oX.XX. .o.Xo.. .oX.XX. .o.Xo.. .oX.XX. .o.Xo.. .oX.XX. .o.Xo.. ",
".oXXXo. .o.Xo.. .oXXXo. .o.Xo.. .oXXXo. .o.Xo.. .oXXXo. .o.Xo.. ",
".o.XXo. .XXXoX. .o.XXo. .XXXoX. .o.XXo. .XXXoX. .o.XXo. .XXXoX. ",
".X.X.o. .XX.oX. .X.X.o. .XX.oX. .X.X.o. .XX.oX. .X.X.o. .XX.oX. ",
".X.o.X. .Xo.XX. .X.o.X. .Xo.XX. .X.o.X. .Xo.XX. .X.o.X. .Xo.XX. ",
"...o.X. .Xo.X.. ...o.X. .Xo.X.. ...o.X. .Xo.X.. ...o.X. .Xo.X.. ",
"..Xo.X. .Xo.X.. ..Xo.X. .Xo.X.. ..Xo.X. .Xo.X.. ..Xo.X. .Xo.X.. ",
"..Xo... ..o.... ..Xo... ..o.... ..Xo... ..o.... ..Xo... ..o.... ",
"...XX.. ..X.... ...XX.. ..X.... ...XX.. ..X.... ...XX.. ..X.... ",
"....... ..XX.X. ....... ..XX.X. ....... ..XX.X. ....... ..XX.X. ",
"        ..oX.X.         ..oX.X.         ..oX.X.         ..oX.X. "
};
