/* XPM */
static char * floor_1_xpm[] = {
"32 32 7 1",
" 	c None",
".	c #969696",
"+	c #A2A2A2",
"@	c #AAAAAA",
"#	c #B2B2B2",
"$	c #BABABA",
"%	c #C2C2C2",
"..+++++++++++++...+++++++++++++.",
".+@##$$$$$$$$#@+.+@##$$$$$$$$#@+",
"+@#$$$%%%%%$$$#@+@#$$$%%%%%$$$#@",
"+#$$%%%%%%%%%$$#+#$$%%%%%%%%%$$#",
"+#$$%%%%%%%%%%$#+#$$%%%%%%%%%%$#",
"@#$%%%%%%%%%%%$#@#$%%%%%%%%%%%$#",
"@#$%%%%%%%%%%%$#@#$%%%%%%%%%%%$#",
"@#$%%%%%%%%%%%$#@#$%%%%%%%%%%%$#",
"@#$%%%%%%%%%%%$#@#$%%%%%%%%%%%$#",
"@#$%%%%%%%%%%%$#@#$%%%%%%%%%%%$#",
"@#$%%%%%%%%%%%$#@#$%%%%%%%%%%%$#",
"@#$$%%%%%%%%%$$#@#$$%%%%%%%%%$$#",
"+#$$%%%%%%%%%$$#+#$$%%%%%%%%%$$#",
"+#$$$$%%$$%%$$$#+#$$$$%%$$%%$$$#",
"+@#$$$$$$$$$$$#@+@#$$$$$$$$$$$#@",
".+@@#########@@+.+@@#########@@+",
"..+++++++++++++...+++++++++++++.",
".+@##$$$$$$$$#@+.+@##$$$$$$$$#@+",
"+@#$$$%%%%%$$$#@+@#$$$%%%%%$$$#@",
"+#$$%%%%%%%%%$$#+#$$%%%%%%%%%$$#",
"+#$$%%%%%%%%%%$#+#$$%%%%%%%%%%$#",
"@#$%%%%%%%%%%%$#@#$%%%%%%%%%%%$#",
"@#$%%%%%%%%%%%$#@#$%%%%%%%%%%%$#",
"@#$%%%%%%%%%%%$#@#$%%%%%%%%%%%$#",
"@#$%%%%%%%%%%%$#@#$%%%%%%%%%%%$#",
"@#$%%%%%%%%%%%$#@#$%%%%%%%%%%%$#",
"@#$%%%%%%%%%%%$#@#$%%%%%%%%%%%$#",
"@#$$%%%%%%%%%$$#@#$$%%%%%%%%%$$#",
"+#$$%%%%%%%%%$$#+#$$%%%%%%%%%$$#",
"+#$$$$%%$$%%$$$#+#$$$$%%$$%%$$$#",
"+@#$$$$$$$$$$$#@+@#$$$$$$$$$$$#@",
".+@@#########@@+.+@@#########@@+"};
