/* XPM */
static char *_e2d3c338fd54f64aba99cceef98c66d[] = {
/* columns rows colors chars-per-pixel */
"64 64 4 1 ",
"  c #50C800",
". c #55D700",
"X c #5AE100",
"o c #5FF000",
/* pixels */
". .ooX............ XX.o.......... .ooX............ XX.o.........",
"X.X   .............  XXXo......oX.X   .............  XXXo......o",
" . Xo...............oX   o....X  . Xo...............oX   o....X ",
".o. Xo.......oX....X  ... .... ..o. Xo.......oX....X  ... .... .",
".X..  X.....o  .... .............X..  X.....o  .... ............",
". .... ....X .................... .... ....X ...................",
"........... ............................... ....................",
".......................X...............................X........",
"....................... o..ooX......................... o..ooX..",
"........................X.oX  ..........................X.oX  ..",
"........................ .X ............................ .X ....",
".......................oX. ............................oX. .....",
"............Xoo.......X  .X....X............Xoo.......X  .X....X",
"o...oX......  Xo...... ... o... o...oX......  Xo...... ... o... ",
" X.X  ........  X..........X.... X.X  ........  X..........X....",
". . ............ .......... ..... . ............ .......... ....",
"oX.XX...........................oX.XX...........................",
"  .  X.........................X  .  X.........................X",
"..... ......................... ..... ......................... ",
"............X...............................X...................",
"...........o ..............................o ...................",
"......oX..oX...........X..............oX..oX...........X........",
"......  X.o ..........o .oX...........  X.o ..........o .oX.....",
"........ XXXo........oX.X  ............. XXXo........oX.X  .....",
"........oX   o.......X . ...............oX   o.......X . .......",
".......X  ... X...... .................X  ... X...... ..........",
"....... ...... ........................ ...... .................",
"................................................................",
"................................................................",
"........................X...............................X.......",
"o......................o ......Xo......................o ......X",
" X...............XoX..oX.......  X...............XoX..oX....... ",
". .ooX............ XX.o.......... .ooX............ XX.o.........",
"X.X   .............  XXXo......oX.X   .............  XXXo......o",
" . Xo...............oX   o....X  . Xo...............oX   o....X ",
".o. Xo.......oX....X  ... .... ..o. Xo.......oX....X  ... .... .",
".X..  X.....o  .... .............X..  X.....o  .... ............",
". .... ....X .................... .... ....X ...................",
"........... ............................... ....................",
".......................X...............................X........",
"....................... o..ooX......................... o..ooX..",
"........................X.oX  ..........................X.oX  ..",
"........................ .X ............................ .X ....",
".......................oX. ............................oX. .....",
"............Xoo.......X  .X....X............Xoo.......X  .X....X",
"o...oX......  Xo...... ... o... o...oX......  Xo...... ... o... ",
" X.X  ........  X..........X.... X.X  ........  X..........X....",
". . ............ .......... ..... . ............ .......... ....",
"oX.XX...........................oX.XX...........................",
"  .  X.........................X  .  X.........................X",
"..... ......................... ..... ......................... ",
"............X...............................X...................",
"...........o ..............................o ...................",
"......oX..oX...........X..............oX..oX...........X........",
"......  X.o ..........o .oX...........  X.o ..........o .oX.....",
"........ XXXo........oX.X  ............. XXXo........oX.X  .....",
"........oX   o.......X . ...............oX   o.......X . .......",
".......X  ... X...... .................X  ... X...... ..........",
"....... ...... ........................ ...... .................",
"................................................................",
"................................................................",
"........................X...............................X.......",
"o......................o ......Xo......................o ......X",
" X...............XoX..oX.......  X...............XoX..oX....... "
};
