/* XPM */
static char *_c78b2d412a345b58d7a848cad251ffb[] = {
/* columns rows colors chars-per-pixel */
"98 96 61 1 ",
"  c #112D19",
". c #113C1E",
"X c #12411D",
"o c #12451C",
"O c #1C441B",
"+ c #134A1B",
"@ c #1C4C19",
"# c #264B19",
"$ c #274F18",
"% c #305217",
"& c #134D24",
"* c #166D2E",
"= c #17752D",
"- c #177E2B",
"; c #2B7B2A",
": c #188729",
"> c #199B3E",
", c #199F3D",
"< c #2C8D26",
"1 c #1AA43C",
"2 c #1AA83B",
"3 c #1BAD3A",
"4 c #1DBF37",
"5 c #1BB13A",
"6 c #1CB639",
"7 c #1CBA38",
"8 c #23A23C",
"9 c #24AB3A",
"0 c #2EA939",
"q c #2EAE38",
"w c #2FB737",
"e c #26BD36",
"r c #25B438",
"t c #2FB238",
"y c #38B137",
"u c #30BB36",
"i c #408925",
"p c #409223",
"a c #549820",
"s c #43B835",
"d c #43BC34",
"f c #4DBF32",
"g c #1DC336",
"h c #27C635",
"j c #30C035",
"k c #31C434",
"l c #31C933",
"z c #3BCB32",
"x c #4FD12F",
"c c #59D42D",
"v c #44C133",
"b c #44C532",
"n c #45CA31",
"m c #45CE30",
"M c #4EC831",
"N c #58C630",
"B c #62CE2E",
"V c #63D62C",
"C c #6DD52B",
"Z c #6DD92A",
"A c #77DC29",
/* pixels */
" &*******;iaaaaaaaaaap<:-=**********;iaaaaaaai;*******************=-::::-=*;iaaaaaaaaaaaaai;****& ",
".*>>>>>>>yNAAAAAAAAAAczg62>>>>>>>>>>yNAAAAAAANy>>>>>>>>>>>>>>>>>>>26gggg62>yNAAAAAAAAAAAAANy>>>>*.",
".*>>>>80ydMccccVZACBNvu631>>>>>>>>>>qvccccVZANy>>>>>>>>>>>>>>>>>>>26g47631>0sNBCAZVcccccccMdy08>*.",
".*>>>>0sNMnzzzzxVABfyq921,>>>>>>>>>>9uzzzzxVANy>>>>>>>>>>>>>>>>>>>26g7521,>80yfBAVxzzzzzzznMNs0>*.",
".*>>>>yNAczggggzcANy>>>>>>>>>>>>>>>>26ggggzcANy>>>>>>>>>>>>>>>>>>>26g62>>>>>>>yNAczgggggggzcANy>*.",
".*>80ydMcmlghlznMNs0>80yyyyyyy08>>>>13674gzcANy>>>>80yyyyyyyq921,>13631>>>>>>>0sNMnzlhgggglmcMdy;O",
".*>0sNMnzlhglmcMdy08>0sNNNNNNNs0>>>>,1257gzcANy>>>>0sNNNNNNNvu631>,121,>>>>>>>80ydMcmlgggghlznMNi#",
".*>yNAczggggzcANy>>>>yNAAAAAAANy>>>>>>>26gzcANy>>>>yNAAAAAAAczg62>>>>>>>>>>>>>>>>yNAczgggggggzcAa%",
".*>qvcnj674glmcvq>>>>yNAZVccccvq>>>>>>>136uvNs0>80yfBAZVccccmlg7521,>>>>,122221,>0sNbkg47674glmcp$",
".*>9uzjr257ghlzu9>>>>yNAVxzzzzu9>>>>>>>,129qy08>0sNBCAVxzzzzlhg47631>>>>13666631>80yweg75257ghlz<@",
".*>26g62>26gggg62>>>>yNAczgggg62>>>>>>>>>>>>>>>>yNAAAAczgggggggggg62>>>>26gggg62>>>>26g62>26gggg:+",
".*>13631>26g47631>>>>yNAczg47631>,121,>>>>>>>>>>0sNNNNvu6ekzlhgggg62>>>>13674g62>>>>26g62>13674g:+",
".*>,121,>26g7521,>>>>yNAczg7521,>13631>>>>>>>>>>80yyyyq92wbcmlgggg62>>>>,1257g62>>>>26g62>,1257g:+",
".*>>>>>>>26g62>>>>>>>yNAczg62>>>>26g62>>>>>>>>>>>>>>>>>>>yNAczgggg62>>>>>>>26g62>>>>26g62>>>>26g:+",
".*>>>>>>>13631>>>>>>>0sNvu631>>>>26g7521,>,122221,>>>>>>>0sNvu666631>>>>>>>13631>>>>13631>>>>136-o",
".*>>>>>>>,121,>>>>>>>80yq921,>>>>26g47631>13666631>>>>>>>80yq922221,>>>>>>>,121,>>>>,121,>>>>,12=X",
".*>>>>>>>>>>>>>>>>>>>>>>>>>>>>>>>26gggg62>26gggg62>>>>>>>>>>>>>>>>>>>>>>>>>>>>>>>>>>>>>>>>>>>>>>*.",
".*>>>>80yyyyyyyyyy08>>>>>>>80yq9235666631>13674g62>>>>,122222221,>,122221,>>>>,122222221,>>>>>>>*.",
".*>>>>0sNNNNNNNNNNs0>>>>>>>0sNvu65322221,>,1257g62>>>>13666666631>13666631>>>>13666666631>>>>>>>*.",
".*>>>>yNAAAAAAAAAANy>>>>>>>yNAczg62>>>>>>>>>>26g62>>>>26ggggggg62>26gggg62>>>>26ggggggg62>>>>>>>*.",
"X=2222wbccccVZACBNs0>,121,>yNAczg7521,>>>>>>>13631>,1257gggg47631>26g47631>80ywegggg47631>>>>>>>*.",
"o-6666ekzzzzxVABfy08>13631>yNAczg47631>>>>>>>,121,>13674gggg7521,>26g7521,>0sNbkgggg7521,>>>>>>>*.",
"+:ggggggggggzcANy>>>>26g62>yNAczgggg62>>>>>>>>>>>>>26ggggggg62>>>>26g62>>>>yNAczgggg62>>>>>>>>>>*.",
"o-666674ghlznMNs0>,1257g62>yNAVxzzzzu9>,122221,>>>>26gggg47631>>>>13631>80ydMcmlgggg7522221,>>>>*.",
"X=222257glmcMdy08>13674g62>yNAZVccccvq>13666631>>>>26gggg7521,>>>>,121,>0sNMnzlhgggg47666631>>>>*.",
".*>>>>26gzcANy>>>>26gggg62>yNAAAAAAANy>26gggg62>>>>26gggg62>>>>>>>>>>>>>yNAczggggggggggggg62>>>>*.",
"X=222257gkbNs0>,1257g47631>0sNNNNNNNs0>26gggg7521,>13666631>>>>>>>>>>80yfBAVxzzzzlhg47666631>,12=X",
"o-666674gewy08>13674g7521,>80yyyyyyy08>26gggg47631>,122221,>>>>>>>>>>0sNBCAZVccccmlg7522221,>136-o",
"+:ggggggg62>>>>26gggg62>>>>>>>>>>>>>>>>26ggggggg62>>>>>>>>>>>>>>>>>>>yNAAAAAAAAAAczg62>>>>>>>26g:+",
"@<zke666631>>>>13666631>>>>,122221,>>>>13674gggg62>,122222222221,>>>>0sNNNNNNNNNNvu631>>>>>>>26g:+",
"$pcbw22221,>>>>,122221,>>>>13666631>>>>,1257gggg62>13666666666631>>>>80yyyyyyyyyyq921,>>>>>>>26g:+",
"%aANy>>>>>>>>>>>>>>>>>>>>>>26gggg62>>>>>>>26gggg62>26gggggggggg62>>>>>>>>>>>>>>>>>>>>>>>>>>>>26g:+",
"$pcMdy08>>>>,122221,>>>>>>>13674g62>>>>>>>13666631>26gggg47666631>>>>>>>>>>>>>>>>>>>>>>,12222356-o",
"@<znMNs0>>>>13666631>>>>>>>,1257g62>>>>>>>,122221,>26gggg7522221,>>>>>>>>>>>>>>>>>>>>>>136666532=X",
"+:gzcANy>>>>26gggg62>>>>>>>>>>26g62>>>>>>>>>>>>>>>>26gggg62>>>>>>>>>>>>>>>>>>>>>>>>>>>>26gggg62>*.",
"+:gzcANy>>>>26g47631>80yyyy08>13631>>>>>>>,122221,>13666631>>>>>>>>>>,122221,>,122221,>13674g62>*.",
"+:gzcANy>>>>26g7521,>0sNNNNs0>,121,>>>>>>>13666631>,122221,>>>>>>>>>>13666631>13666631>,1257g62>*.",
"+:gzcANy>>>>26g62>>>>yNAAAANy>>>>>>>>>>>>>26gggg62>>>>>>>>>>>>>>>>>>>26gggg62>26gggg62>>>>26g62>*.",
"+:glmcMdy08>13631>80ydMcVZANy>>>>,122221,>13674g62>>>>>>>>>>80yyyyq9257gggg62>13674g62>>>>13631>*.",
"+:ghlznMNs0>,121,>0sNMnzxVANy>>>>13666631>,1257g62>>>>>>>>>>0sNNNNvu674gggg62>,1257g62>>>>,121,>*.",
"+:ggggzcANy>>>>>>>yNAczgzcANy>>>>26gggg62>>>>26g62>>>>>>>>>>yNAAAAczggggggg62>>>>26g62>>>>>>>>>>*.",
"+:g476jncvq>>>>,12wbcxmznMNs0>>>>26g47631>>>>13631>>>>>>>80ydMcVZAVxzlhgggg62>>>>13631>>>>>>>>>>*.",
"+:g752rjzu9>>>>136ekzmxcMdy08>>>>26g7521,>>>>,121,>>>>>>>0sNMnzxVAZVcmlgggg62>>>>,121,>>>>>>>>>>*.",
"+:g62>26g62>>>>26ggggzcANy>>>>>>>26g62>>>>>>>>>>>>>>>>>>>yNAczgzcAAAAczgggg62>>>>>>>>>>>>>>>>>>>*.",
"+:g62>26g62>,1257ggggkbNs0>>>>>>>13631>,122221,>,121,>80yfBAVxznMNNNNvu666631>>>>>>>80yyyyq921,>*.",
"+:g62>26g62>13674ggggewy08>>>>>>>,121,>13666631>13631>0sNBCAZVcMdyyyyq922221,>>>>>>>0sNNNNvu631>*.",
"+:g62>26g62>26ggggggg62>>>>>>>>>>>>>>>>26gggg62>26g62>yNAAAAAAANy>>>>>>>>>>>>>>>>>>>yNAAAAczg62>*.",
"o-631>13653257g47674g62>>>>>>>,122221,>26g47631>26g62>0sNNNNNNNdt22221,>>>>>>>>>>>>>yNAZVcmlg62>*.",
"X=21,>,1235674g75257g62>>>>>>>13666631>26g7521,>26g62>80yyyyyyytr666631>>>>>>>>>>>>>yNAVxzlhg62>*.",
".*>>>>>>>26gggg62>26g62>>>>>>>26gggg62>26g62>>>>26g62>>>>>>>>>>26gggg62>>>>>>>>>>>>>yNAczgggg62>*.",
".*>,121,>13674g62>26g62>>>>>>>13674g62>13631>>>>26g62>>>>>>>>>>26g47631>>>>,121,>>>>qvcmlg47631>*.",
".*>13631>,1257g62>26g62>>>>>>>,1257g62>,121,>>>>26g62>>>>>>>>>>26g7521,>>>>13631>>>>9uzlhg7521,>*.",
".*>26g62>>>>26g62>26g62>>>>>>>>>>26g62>>>>>>>>>>26g62>>>>>>>>>>26g62>>>>>>>26g62>>>>26gggg62>>>>*.",
"X=257g62>>>>13631>13631>>>>>>>>>>13631>>>>>>>>>>13631>>>>>>>>>>13631>>>>,1257g62>>>>13666631>>>>*.",
"o-674g62>>>>,121,>,121,>>>>>>>>>>,121,>>>>>>>>>>,121,>>>>>>>>>>,121,>>>>13674g62>>>>,122221,>>>>*.",
"+:gggg62>>>>>>>>>>>>>>>>>>>>>>>>>>>>>>>>>>>>>>>>>>>>>>>>>>>>>>>>>>>>>>>>26gggg62>>>>>>>>>>>>>>>>*.",
"o-666631>,122229qyyyyyyy08>>>>,122221,>>>>,122222221,>>>>>>>,122222221,>26gggg62>,121,>>>>>>>>>>*.",
"X=22221,>136666uvNNNNNNNs0>>>>13666631>>>>13666666631>>>>>>>13666666631>26gggg62>13631>>>>>>>>>>*.",
".*>>>>>>>26ggggzcAAAAAAANy>>>>26gggg62>>>>26ggggggg62>>>>>>>26ggggggg62>26gggg62>26g62>>>>>>>>>>*.",
".*>,1222235674glmcVZAAAABfy08>13674g62>,1257gggg47631>,121,>13674gggg75235666653257g62>>>>,12222=X",
".*>13666653257ghlzxVAAAACBNs0>,1257g62>13674gggg7521,>13631>,1257gggg47653222235674g62>>>>136666-o",
".*>26gggg62>26ggggzcAAAAAAANy>>>>26g62>26ggggggg62>>>>26g62>>>>26ggggggg62>>>>26gggg62>>>>26gggg:+",
".*>136666532rjzke6uvNNNNNNNdt222235631>26gggg47631>>>>26g7521,>13674gggg62>,1257g47631>>>>9uzlhg:+",
".*>,12222356jncbw29qyyyyyyytr66665321,>26gggg7521,>>>>26g47631>,1257gggg62>13674g7521,>>>>qvcmlg:+",
".*>>>>>>>26gzcANy>>>>>>>>>>26gggg62>>>>26gggg62>>>>>>>26gggg62>>>>26gggg62>26gggg62>>>>>>>yNAczg:+",
".*>>>>>>>136uvNs0>>>>>>>>>>26gggg7521,>13666631>>>>>>>13666631>>>>13666631>26gggg62>>>>>>>yNAVxz<@",
".*>>>>>>>,129qy08>>>>>>>>>>26gggg47631>,122221,>>>>>>>,122221,>>>>,122221,>26gggg62>>>>>>>yNAZVcp$",
".*>>>>>>>>>>>>>>>>>>>>>>>>>26ggggggg62>>>>>>>>>>>>>>>>>>>>>>>>>>>>>>>>>>>>>26gggg62>>>>>>>yNAAAAa%",
"X=22221,>,122221,>,122221,>13674gggg62>,122222222221,>>>>>>>,122221,>>>>>>>13666631>,12222tdNNNNi#",
"o-666631>13666631>13666631>,1257gggg62>13666666666631>>>>>>>13666631>>>>>>>,122221,>136666rtyyyy;O",
"+:gggg62>26gggg62>26gggg62>>>>26gggg62>26gggggggggg62>>>>>>>26gggg62>>>>>>>>>>>>>>>>26gggg62>>>>*.",
"o-674g62>26g47631>13674g62>>>>13666631>26gggg47666631>>>>>>>26g47631>>>>>>>>>>>>>>>>13674g62>>>>*.",
"X=257g62>26g7521,>,1257g62>>>>,122221,>26gggg7522221,>>>>>>>26g7521,>>>>>>>>>>>>>>>>,1257g62>>>>*.",
".*>26g62>26g62>>>>>>>26g62>>>>>>>>>>>>>26gggg62>>>>>>>>>>>>>26g62>>>>>>>>>>>>>>>>>>>>>>26g62>>>>*.",
".*>13631>1365322221,>13631>>>>,121,>>>>13666631>>>>>>>>>>>>>13631>,122221,>>>>>>>>>>>>>136532222=X",
".*>,121,>,1235666631>,121,>>>>13631>>>>,122221,>>>>>>>>>>>>>,121,>13666631>>>>>>>>>>>>>,12356666-o",
".*>>>>>>>>>>26gggg62>>>>>>>>>>26g62>>>>>>>>>>>>>>>>>>>>>>>>>>>>>>>26gggg62>>>>>>>>>>>>>>>>26gggg:+",
".*>,122221,>26g47631>>>>>>>,1257g62>>>>>>>>>>>>>>>>>>>>>>,122221,>26g47631>,121,>>>>>>>,1257gggg:+",
".*>13666631>26g7521,>>>>>>>13674g62>>>>>>>>>>>>>>>>>>>>>>13666631>26g7521,>13631>>>>>>>13674gggg:+",
".*>26gggg62>26g62>>>>>>>>>>26gggg62>>>>>>>>>>>>>>>>>>>>>>26gggg62>26g62>>>>26g62>>>>>>>26ggggggg:+",
".*>13674g62>1365322222221,>26gggg62>,121,>80yyyyyyyyyy08>26g47631>13631>>>>1365321,>>>>26gggg476-o",
".*>,1257g62>,1235666666631>26gggg62>13631>0sNNNNNNNNNNs0>26g7521,>,121,>>>>,1235631>>>>26gggg752=X",
".*>>>>26g62>>>>26ggggggg62>26gggg62>26g62>yNAAAAAAAAAANy>26g62>>>>>>>>>>>>>>>>26g62>>>>26gggg62>*.",
".*>>>>13631>>>>13674gggg75235666653257g62>0sNBCAZVcVZANy>13631>80yyyyyyy08>>>>26g7521,>13666631>*.",
".*>>>>,121,>>>>,1257gggg47653222235674g62>80yfBAVxzxVANy>,121,>0sNNNNNNNs0>>>>26g47631>,122221,>*.",
".*>>>>>>>>>>>>>>>>26ggggggg62>>>>26gggg62>>>>yNAczgzcANy>>>>>>>yNAAAAAAANy>>>>26gggg62>>>>>>>>>>*.",
"O;yyyyyyy08>>>>>>>13674gggg62>,1257g47631>>>>0sNMnzmxcMdy08>80ydMccccVZABfy08>26gggg62>,12222222=X",
"#iNNNNNNNs0>>>>>>>,1257gggg62>13674g7521,>>>>80ydMcxmznMNs0>0sNMnzzzzxVACBNs0>26gggg62>136666666-o",
"%aAAAAAAANy>>>>>>>>>>26gggg62>26gggg62>>>>>>>>>>yNAczgzcANy>yNAczggggzcAAAANy>26gggg62>26ggggggg:+",
"$pccccVZANy>>>>>>>>>>13666631>26gggg62>>>>>>>>>>yNAczglmcvq>yNAczggggkbNNNNs0>13666631>26gggg476-o",
"@<zzzzxVANy>>>>>>>>>>,122221,>26gggg62>>>>>>>>>>yNAczghlzu9>yNAczggggewyyyy08>,122221,>26gggg752=X",
"+:ggggzcANy>>>>>>>>>>>>>>>>>>>26gggg62>>>>>>>>>>yNAczgggg62>yNAczgggg62>>>>>>>>>>>>>>>>26gggg62>*.",
"o-674gzcANy>>>>>>>>>>>>>>>>>>>13666631>>>>>>>>>>qvcnj674g62>qvcnj674g62>>>>>>>,122221,>13666631>*.",
"X=257gzcANy>>>>>>>>>>>>>>>>>>>,122221,>>>>>>>>>>9uzjr257g62>9uzjr257g62>>>>>>>13666631>,122221,>*.",
".*>26gzcANy>>>>>>>>>>>>>>>>>>>>>>>>>>>>>>>>>>>>>26g62>26g62>26g62>26g62>>>>>>>26gggg62>>>>>>>>>>*.",
" &*=-:<pai;*************************************=-:-=*=-:-=*=-:-=*=-:-=*******=-::::-=**********& "
};
