/* XPM */
static char *b647359b0e274b428c96b1cd27c99217[] = {
/* columns rows colors chars-per-pixel */
"64 64 6 1 ",
"  c #B9B9B9",
". c #C8C8C8",
"X c #D2D2D2",
"o c gainsboro",
"O c #E6E6E6",
"+ c gray94",
/* pixels */
"  .............   .............   .............   ............. ",
" .XooOOOOOOOOoX. .XooOOOOOOOOoX. .XooOOOOOOOOoX. .XooOOOOOOOOoX.",
".XoOOO+++++OOOoX.XoOOOO+++OOOOoX.XoOOO+++++OOOoX.XoOOOO+++OOOOoX",
".oOO+++++++++OOo.oOO++++++++OOOo.oOO+++++++++OOo.oOO++++++++OOOo",
".oOO++++++++++Oo.oO++++++++++OOo.oOO++++++++++Oo.oO++++++++++OOo",
"XoO+++++++++++OoXoO++++++++++OOoXoO+++++++++++OoXoO++++++++++OOo",
"XoO+++++++++++OoXoO+++++++++++OoXoO+++++++++++OoXoO+++++++++++Oo",
"XoO+++++++++++OoXoOO++++++++++OoXoO+++++++++++OoXoOO++++++++++Oo",
"XoO+++++++++++OoXoOO++++++++++OoXoO+++++++++++OoXoOO++++++++++Oo",
"XoO+++++++++++OoXoO+++++++++++OoXoO+++++++++++OoXoO+++++++++++Oo",
"XoO+++++++++++OoXoO++++++++++OOoXoO+++++++++++OoXoO++++++++++OOo",
"XoOO+++++++++OOoXoO++++++++++OOoXoOO+++++++++OOoXoO++++++++++OOo",
".oOO+++++++++OOo.oOO++++++++OOOo.oOO+++++++++OOo.oOO++++++++OOOo",
".oOOOO++OO++OOOo.oOOOO+++++OOOOo.oOOOO++OO++OOOo.oOOOO+++++OOOOo",
".XoOOOOOOOOOOOoX.XoOOOOOOOOOOOoX.XoOOOOOOOOOOOoX.XoOOOOOOOOOOOoX",
" .XXoooooooooXX. .XXoooooooooXX. .XXoooooooooXX. .XXoooooooooXX.",
"  ............    ............    ............    ............  ",
" .XooOOOOOOOooX. .XooOOOOOOOooX. .XooOOOOOOOooX. .XooOOOOOOOooX.",
" XoOOO++++OOOOoX XoOOOO+++OOOOoX XoOOO++++OOOOoX XoOOOO+++OOOOoX",
".oOO++++++++OOOo.oOOO+++++++OOOo.oOO++++++++OOOo.oOOO+++++++OOOo",
".oO++++++++++OOo.oOO+++++++++OOo.oO++++++++++OOo.oOO+++++++++OOo",
"XoO+++++++++++OoXoOO++++++++++OoXoO+++++++++++OoXoOO++++++++++Oo",
"XoO+++++++++++OoXoO+++++++++++OoXoO+++++++++++OoXoO+++++++++++Oo",
"XoOO+++++++++OOoXoO+++++++++++OoXoOO+++++++++OOoXoO+++++++++++Oo",
"XoOO+++++++++OOoXoO+++++++++++OoXoOO+++++++++OOoXoO+++++++++++Oo",
"XoO+++++++++++OoXoO+++++++++++OoXoO+++++++++++OoXoO+++++++++++Oo",
"XoO+++++++++++OoXoO+++++++++++OoXoO+++++++++++OoXoO+++++++++++Oo",
"XoO+++++++++++OoXoO++++++++++OOoXoO+++++++++++OoXoO++++++++++OOo",
".oOO+++++++++OOo.oOO+++++++++OOo.oOO+++++++++OOo.oOO+++++++++OOo",
".oOOOO+++++OOOOo.oOOO++OO+++OOOo.oOOOO+++++OOOOo.oOOO++OO+++OOOo",
".XoOOOOOOOOOOOoX.XoOOOOOOOOOOOoX.XoOOOOOOOOOOOoX.XoOOOOOOOOOOOoX",
" .XXoooooooooXX. .XXoooooooooXX. .XXoooooooooXX. .XXoooooooooXX.",
"  .............   .............   .............   ............. ",
" .XooOOOOOOOOoX. .XooOOOOOOOOoX. .XooOOOOOOOOoX. .XooOOOOOOOOoX.",
".XoOOO+++++OOOoX.XoOOOO+++OOOOoX.XoOOO+++++OOOoX.XoOOOO+++OOOOoX",
".oOO+++++++++OOo.oOO++++++++OOOo.oOO+++++++++OOo.oOO++++++++OOOo",
".oOO++++++++++Oo.oO++++++++++OOo.oOO++++++++++Oo.oO++++++++++OOo",
"XoO+++++++++++OoXoO++++++++++OOoXoO+++++++++++OoXoO++++++++++OOo",
"XoO+++++++++++OoXoO+++++++++++OoXoO+++++++++++OoXoO+++++++++++Oo",
"XoO+++++++++++OoXoOO++++++++++OoXoO+++++++++++OoXoOO++++++++++Oo",
"XoO+++++++++++OoXoOO++++++++++OoXoO+++++++++++OoXoOO++++++++++Oo",
"XoO+++++++++++OoXoO+++++++++++OoXoO+++++++++++OoXoO+++++++++++Oo",
"XoO+++++++++++OoXoO++++++++++OOoXoO+++++++++++OoXoO++++++++++OOo",
"XoOO+++++++++OOoXoO++++++++++OOoXoOO+++++++++OOoXoO++++++++++OOo",
".oOO+++++++++OOo.oOO++++++++OOOo.oOO+++++++++OOo.oOO++++++++OOOo",
".oOOOO++OO++OOOo.oOOOO+++++OOOOo.oOOOO++OO++OOOo.oOOOO+++++OOOOo",
".XoOOOOOOOOOOOoX.XoOOOOOOOOOOOoX.XoOOOOOOOOOOOoX.XoOOOOOOOOOOOoX",
" .XXoooooooooXX. .XXoooooooooXX. .XXoooooooooXX. .XXoooooooooXX.",
"  ............    ............    ............    ............  ",
" .XooOOOOOOOooX. .XooOOOOOOOooX. .XooOOOOOOOooX. .XooOOOOOOOooX.",
" XoOOO++++OOOOoX XoOOOO+++OOOOoX XoOOO++++OOOOoX XoOOOO+++OOOOoX",
".oOO++++++++OOOo.oOOO+++++++OOOo.oOO++++++++OOOo.oOOO+++++++OOOo",
".oO++++++++++OOo.oOO+++++++++OOo.oO++++++++++OOo.oOO+++++++++OOo",
"XoO+++++++++++OoXoOO++++++++++OoXoO+++++++++++OoXoOO++++++++++Oo",
"XoO+++++++++++OoXoO+++++++++++OoXoO+++++++++++OoXoO+++++++++++Oo",
"XoOO+++++++++OOoXoO+++++++++++OoXoOO+++++++++OOoXoO+++++++++++Oo",
"XoOO+++++++++OOoXoO+++++++++++OoXoOO+++++++++OOoXoO+++++++++++Oo",
"XoO+++++++++++OoXoO+++++++++++OoXoO+++++++++++OoXoO+++++++++++Oo",
"XoO+++++++++++OoXoO+++++++++++OoXoO+++++++++++OoXoO+++++++++++Oo",
"XoO+++++++++++OoXoO++++++++++OOoXoO+++++++++++OoXoO++++++++++OOo",
".oOO+++++++++OOo.oOO+++++++++OOo.oOO+++++++++OOo.oOO+++++++++OOo",
".oOOOO+++++OOOOo.oOOO++OO+++OOOo.oOOOO+++++OOOOo.oOOO++OO+++OOOo",
".XoOOOOOOOOOOOoX.XoOOOOOOOOOOOoX.XoOOOOOOOOOOOoX.XoOOOOOOOOOOOoX",
" .XXoooooooooXX. .XXoooooooooXX. .XXoooooooooXX. .XXoooooooooXX."
};
