/* XPM */
static char *c2615dc5918044448786f63024e7e4b7[] = {
/* columns rows colors chars-per-pixel */
"64 64 4 1 ",
"  c #41A500",
". c #46B400",
"X c #4BBE00",
"o c #50CD00",
/* pixels */
".. .ooX.... ..ooX.. XX.o... .X.... .ooX.... ..ooX.. XX.o... .X..",
"oX.X   .X....oX  ...  XXXo..X ..oX.X   .X....oX  ...  XXXo..X ..",
"X . Xo.. X..X  ..oX..oX   o. ..oX . Xo.. X..X  ..oX..oX   o. ..o",
" .o. Xo.. .. ...X  .X  ... ...X  .o. Xo.. .. ...X  .X  ... ...X ",
"..X..  X...X.... .o. ..Xo...X. ...X..  X...X.... .o. ..Xo...X. .",
"X. .... ..o ..X...X.X..  X.o ..oX. .... ..o ..X...X.X..  X.o ..o",
" ...oX...oX..o ... . o... .X..X  ...oX...oX..o ... . o... .X..X ",
"...X  ...o ..X..oX...Xo.X.. .. ....X  ...o ..X..oX...Xo.X.. .. .",
"... ...X.X... .o  ... X. o..ooX.... ...X.X... .o  ... X. o..ooX.",
"XoX...o . ..X.X ..Xoo. ..X.oX  .XoX...o . ..X.X ..Xoo. ..X.oX  .",
"   X..X....o . ...  Xo... .X ...   X..X....o . ...  Xo... .X ...",
"... .. .X.o ...oX...  ..oX. .X..... .. .X.o ...oX...  ..oX. .X..",
".......o .X....  ..oX..X  .X. X........o .X....  ..oX..X  .X. X.",
"..Xo..oX.. .ooX...X  .. ... o. ...Xo..oX.. .ooX...X  .. ... o. .",
"..  X.o ...oX  ... ..oX.....X.....  X.o ...oX  ... ..oX.....X...",
".... . Xo..X .......X  ..X.. .X..... . Xo..X .......X  ..X.. .X.",
"...oX..  o. .oX.Xo.. ...o .... o...oX..  o. .oX.Xo.. ...o .... o",
"X.X  .... X.X  .  X..XX.X..o... X.X  .... X.X  .  X..XX.X..o... ",
" . ....o.. . ..... .X  . ..X.... . ....o.. . ..... .X  . ..X....",
"...oX.X .....X..oX.. .XX... ..X....oX.X .....X..oX.. .XX... ..X.",
"..X  . .....o .X  ..X.  X...X. X..X  . .....o .X  ..X.  X...X. X",
".X ....oX..oX.. ...o ... ..X .. .X ....oX..oX.. ...o ... ..X .. ",
". .....  X.o ...X..X..X.... ..oX. .....  X.o ...X..X..X.... ..oX",
"...ooX... XXXo.. o. .o .oX...X  ...ooX... XXXo.. o. .o .oX...X  ",
"..oX  ...oX   o..Xo.oX.X  ... ....oX  ...oX   o..Xo.oX.X  ... ..",
".X  .oX.X  ... X. o.X . ..oX.....X  .oX.X  ... X. o.X . ..oX....",
". ..X  . ...... ..X. ....X  ..X.. ..X  . ...... ..X. ....X  ..X.",
".... ......ooX.X.. ....X. .... X.... ......ooX.X.. ....X. .... X",
"...oXo..X.oX  . o..X..o ....... ...oXo..X.oX  . o..X..o ....... ",
"...   X.o.X ....X.. X.X..X..ooX....   X.o.X ....X.. X.X..X..ooX.",
"Xo.... .X. .oX.. ... . .o .oX  .Xo.... .X. .oX.. ... . .o .oX  .",
"  X..... ..X  ....XoX..oX..X ...  X..... ..X  ....XoX..oX..X ...",
".. .ooX.... ..ooX.. XX.o... .X.... .ooX.... ..ooX.. XX.o... .X..",
"oX.X   .X....oX  ...  XXXo..X ..oX.X   .X....oX  ...  XXXo..X ..",
"X . Xo.. X..X  ..oX..oX   o. ..oX . Xo.. X..X  ..oX..oX   o. ..o",
" .o. Xo.. .. ...X  .X  ... ...X  .o. Xo.. .. ...X  .X  ... ...X ",
"..X..  X...X.... .o. ..Xo...X. ...X..  X...X.... .o. ..Xo...X. .",
"X. .... ..o ..X...X.X..  X.o ..oX. .... ..o ..X...X.X..  X.o ..o",
" ...oX...oX..o ... . o... .X..X  ...oX...oX..o ... . o... .X..X ",
"...X  ...o ..X..oX...Xo.X.. .. ....X  ...o ..X..oX...Xo.X.. .. .",
"... ...X.X... .o  ... X. o..ooX.... ...X.X... .o  ... X. o..ooX.",
"XoX...o . ..X.X ..Xoo. ..X.oX  .XoX...o . ..X.X ..Xoo. ..X.oX  .",
"   X..X....o . ...  Xo... .X ...   X..X....o . ...  Xo... .X ...",
"... .. .X.o ...oX...  ..oX. .X..... .. .X.o ...oX...  ..oX. .X..",
".......o .X....  ..oX..X  .X. X........o .X....  ..oX..X  .X. X.",
"..Xo..oX.. .ooX...X  .. ... o. ...Xo..oX.. .ooX...X  .. ... o. .",
"..  X.o ...oX  ... ..oX.....X.....  X.o ...oX  ... ..oX.....X...",
".... . Xo..X .......X  ..X.. .X..... . Xo..X .......X  ..X.. .X.",
"...oX..  o. .oX.Xo.. ...o .... o...oX..  o. .oX.Xo.. ...o .... o",
"X.X  .... X.X  .  X..XX.X..o... X.X  .... X.X  .  X..XX.X..o... ",
" . ....o.. . ..... .X  . ..X.... . ....o.. . ..... .X  . ..X....",
"...oX.X .....X..oX.. .XX... ..X....oX.X .....X..oX.. .XX... ..X.",
"..X  . .....o .X  ..X.  X...X. X..X  . .....o .X  ..X.  X...X. X",
".X ....oX..oX.. ...o ... ..X .. .X ....oX..oX.. ...o ... ..X .. ",
". .....  X.o ...X..X..X.... ..oX. .....  X.o ...X..X..X.... ..oX",
"...ooX... XXXo.. o. .o .oX...X  ...ooX... XXXo.. o. .o .oX...X  ",
"..oX  ...oX   o..Xo.oX.X  ... ....oX  ...oX   o..Xo.oX.X  ... ..",
".X  .oX.X  ... X. o.X . ..oX.....X  .oX.X  ... X. o.X . ..oX....",
". ..X  . ...... ..X. ....X  ..X.. ..X  . ...... ..X. ....X  ..X.",
".... ......ooX.X.. ....X. .... X.... ......ooX.X.. ....X. .... X",
"...oXo..X.oX  . o..X..o ....... ...oXo..X.oX  . o..X..o ....... ",
"...   X.o.X ....X.. X.X..X..ooX....   X.o.X ....X.. X.X..X..ooX.",
"Xo.... .X. .oX.. ... . .o .oX  .Xo.... .X. .oX.. ... . .o .oX  .",
"  X..... ..X  ....XoX..oX..X ...  X..... ..X  ....XoX..oX..X ..."
};
