/* XPM */
static char *_f9dc39f454949a3f61fedff26b4383c[] = {
/* columns rows colors chars-per-pixel */
"64 64 7 1 ",
"  c gray59",
". c #AAAAAA",
"X c #C8C8C8",
"o c gainsboro",
"O c #E6E6E6",
"+ c gray94",
"@ c gray98",
/* pixels */
"  .............   .............   .............   ............. ",
" .XoOOOOOOOOOoX. .XoOOOOOOOOOoX. .XoOOOOOOOOOoX. .XoOOOOOOOOOoX.",
".XO@@@@@@@++OOoX.XO@@@@@@@++OOoX.XO@@@@@@@++OOoX.XO@@@@@@@++OOoX",
".X@@+++++++OOOoX.X@@+++++++OOOoX.X@@+++++++OOOoX.X@@+++++++OOOoX",
".X@+++++OOOOOOoX.X@+++++OOOOOOoX.X@+++++OOOOOOoX.X@+++++OOOOOOoX",
".XO++++OOOOOOOoX.XO++++OOOOOOOoX.XO++++OOOOOOOoX.XO++++OOOOOOOoX",
" XOOOOOOOOOOOOoX XOOOOOOOOOOOOoX XOOOOOOOOOOOOoX XOOOOOOOOOOOOoX",
" .XXXXXXXXXXXXX. .XXXXXXXXXXXXX. .XXXXXXXXXXXXX. .XXXXXXXXXXXXX.",
".......   .............   .............   .............   ......",
"OOOOOoX. .XoOOOOOOOOOoX. .XoOOOOOOOOOoX. .XoOOOOOOOOOoX. .XoOOOO",
"@@@++OoX.XO@@@@@@@@++OoX.XO@@@@@@@@++OoX.XO@@@@@@@@++OoX.XO@@@@@",
"++++++oX.X@+++++++++++oX.X@+++++++++++oX.X@+++++++++++oX.X@+++++",
"+++OOOoX.X+++++++++OOOoX.X+++++++++OOOoX.X+++++++++OOOoX.X++++++",
"OOOOOOoX.XO++++OOOOOOOoX.XO++++OOOOOOOoX.XO++++OOOOOOOoX.XO++++O",
"OOOOOOoX XOOOOOOOOOOOOoX XOOOOOOOOOOOOoX XOOOOOOOOOOOOoX XOOOOOO",
"XXXXXXX. .XXXXXXXXXXXXX. .XXXXXXXXXXXXX. .XXXXXXXXXXXXX. .XXXXXX",
"  .............   .............   .............   ............. ",
" .XoOOOOOOOOOoX. .XoOOOOOOOOOoX. .XoOOOOOOOOOoX. .XoOOOOOOOOOoX.",
".XO@@@@@@@@++OoX.XO@@@@@@@@++OoX.XO@@@@@@@@++OoX.XO@@@@@@@@++OoX",
".X@+++++++++++oX.X@+++++++++++oX.X@+++++++++++oX.X@+++++++++++oX",
".X++++++OOOOOOoX.X++++++OOOOOOoX.X++++++OOOOOOoX.X++++++OOOOOOoX",
".XO++OOOOOOOOOoX.XO++OOOOOOOOOoX.XO++OOOOOOOOOoX.XO++OOOOOOOOOoX",
" XOOOOOOOOOOOOoX XOOOOOOOOOOOOoX XOOOOOOOOOOOOoX XOOOOOOOOOOOOoX",
" .XXXXXXXXXXXXX. .XXXXXXXXXXXXX. .XXXXXXXXXXXXX. .XXXXXXXXXXXXX.",
".......   .............   .............   .............   ......",
"OOOOOoX. .XoOOOOOOOOOoX. .XoOOOOOOOOOoX. .XoOOOOOOOOOoX. .XoOOOO",
"@@@++OoX.XO@@@@@@@@++OoX.XO@@@@@@@@++OoX.XO@@@@@@@@++OoX.XO@@@@@",
"++++++oX.X@+++++++++++oX.X@+++++++++++oX.X@+++++++++++oX.X@+++++",
"+++OOOoX.X+++++++++OOOoX.X+++++++++OOOoX.X+++++++++OOOoX.X++++++",
"OOOOOOoX.XO++++OOOOOOOoX.XO++++OOOOOOOoX.XO++++OOOOOOOoX.XO++++O",
"OOOOOOoX XOOOOOOOOOOOOoX XOOOOOOOOOOOOoX XOOOOOOOOOOOOoX XOOOOOO",
"XXXXXXX. .XXXXXXXXXXXXX. .XXXXXXXXXXXXX. .XXXXXXXXXXXXX. .XXXXXX",
"  .............   .............   .............   ............. ",
" .XoOOOOOOOOOoX. .XoOOOOOOOOOoX. .XoOOOOOOOOOoX. .XoOOOOOOOOOoX.",
".XO@@@@@@@++OOoX.XO@@@@@@@++OOoX.XO@@@@@@@++OOoX.XO@@@@@@@++OOoX",
".X@@+++++++OOOoX.X@@+++++++OOOoX.X@@+++++++OOOoX.X@@+++++++OOOoX",
".X@+++++OOOOOOoX.X@+++++OOOOOOoX.X@+++++OOOOOOoX.X@+++++OOOOOOoX",
".XO++++OOOOOOOoX.XO++++OOOOOOOoX.XO++++OOOOOOOoX.XO++++OOOOOOOoX",
" XOOOOOOOOOOOOoX XOOOOOOOOOOOOoX XOOOOOOOOOOOOoX XOOOOOOOOOOOOoX",
" .XXXXXXXXXXXXX. .XXXXXXXXXXXXX. .XXXXXXXXXXXXX. .XXXXXXXXXXXXX.",
".......   .............   .............   .............   ......",
"OOOOOoX. .XoOOOOOOOOOoX. .XoOOOOOOOOOoX. .XoOOOOOOOOOoX. .XoOOOO",
"@@@++OoX.XO@@@@@@@@++OoX.XO@@@@@@@@++OoX.XO@@@@@@@@++OoX.XO@@@@@",
"++++++oX.X@+++++++++++oX.X@+++++++++++oX.X@+++++++++++oX.X@+++++",
"+++OOOoX.X+++++++++OOOoX.X+++++++++OOOoX.X+++++++++OOOoX.X++++++",
"OOOOOOoX.XO++++OOOOOOOoX.XO++++OOOOOOOoX.XO++++OOOOOOOoX.XO++++O",
"OOOOOOoX XOOOOOOOOOOOOoX XOOOOOOOOOOOOoX XOOOOOOOOOOOOoX XOOOOOO",
"XXXXXXX. .XXXXXXXXXXXXX. .XXXXXXXXXXXXX. .XXXXXXXXXXXXX. .XXXXXX",
"  .............   .............   .............   ............. ",
" .XoOOOOOOOOOoX. .XoOOOOOOOOOoX. .XoOOOOOOOOOoX. .XoOOOOOOOOOoX.",
".XO@@@@@@@@++OoX.XO@@@@@@@@++OoX.XO@@@@@@@@++OoX.XO@@@@@@@@++OoX",
".X@+++++++++++oX.X@+++++++++++oX.X@+++++++++++oX.X@+++++++++++oX",
".X++++++OOOOOOoX.X++++++OOOOOOoX.X++++++OOOOOOoX.X++++++OOOOOOoX",
".XO++OOOOOOOOOoX.XO++OOOOOOOOOoX.XO++OOOOOOOOOoX.XO++OOOOOOOOOoX",
" XOOOOOOOOOOOOoX XOOOOOOOOOOOOoX XOOOOOOOOOOOOoX XOOOOOOOOOOOOoX",
" .XXXXXXXXXXXXX. .XXXXXXXXXXXXX. .XXXXXXXXXXXXX. .XXXXXXXXXXXXX.",
".......   .............   .............   .............   ......",
"OOOOOoX. .XoOOOOOOOOOoX. .XoOOOOOOOOOoX. .XoOOOOOOOOOoX. .XoOOOO",
"@@@++OoX.XO@@@@@@@@++OoX.XO@@@@@@@@++OoX.XO@@@@@@@@++OoX.XO@@@@@",
"++++++oX.X@+++++++++++oX.X@+++++++++++oX.X@+++++++++++oX.X@+++++",
"+++OOOoX.X+++++++++OOOoX.X+++++++++OOOoX.X+++++++++OOOoX.X++++++",
"OOOOOOoX.XO++++OOOOOOOoX.XO++++OOOOOOOoX.XO++++OOOOOOOoX.XO++++O",
"OOOOOOoX XOOOOOOOOOOOOoX XOOOOOOOOOOOOoX XOOOOOOOOOOOOoX XOOOOOO",
"XXXXXXX. .XXXXXXXXXXXXX. .XXXXXXXXXXXXX. .XXXXXXXXXXXXX. .XXXXXX"
};
