/* XPM */
static char *a6856acbc625487482948a79e7d42fa6[] = {
/* columns rows colors chars-per-pixel */
"64 64 5 1 ",
"  c #D2D2D2",
". c #D7D7D7",
"X c gainsboro",
"o c #E6E6E6",
"O c gray94",
/* pixels */
"O.OOOO.OOOO.OOOO.OOOO.OOOO.OOOO.OOOO.OOOO.OOOO.OOOO.OOOO.OOOO.OO",
"oXoOOoXoOOoXoOOoXoOOoXoOOoXoOOoXoOOoXoOOoXoOOoXoOOoXoOOoXoOOoXoO",
"X X. X X. X X. X X. X X. X X. X X. X X. X X. X X. X X. X X. X X.",
"OOOO.OOOO.OOOO.OOOO.OOOO.OOOO.OOOO.OOOO.OOOO.OOOO.OOOO.OOOO.OOOO",
"oOOoXoOOoXoOOoXoOOoXoOOoXoOOoXoOOoXoOOoXoOOoXoOOoXoOOoXoOOoXoOOo",
"X. X X. X X. X X. X X. X X. X X. X X. X X. X X. X X. X X. X X. X",
"OO.OOOO.OOOO.OOOO.OOOO.OOOO.OOOO.OOOO.OOOO.OOOO.OOOO.OOOO.OOOO.O",
"OoXoOOoXoOOoXoOOoXoOOoXoOOoXoOOoXoOOoXoOOoXoOOoXoOOoXoOOoXoOOoXo",
" X X. X X. X X. X X. X X. X X. X X. X X. X X. X X. X X. X X. X X",
".OOOO.OOOO.OOOO.OOOO.OOOO.OOOO.OOOO.OOOO.OOOO.OOOO.OOOO.OOOO.OOO",
"XoOOoXoOOoXoOOoXoOOoXoOOoXoOOoXoOOoXoOOoXoOOoXoOOoXoOOoXoOOoXoOO",
" X. X X. X X. X X. X X. X X. X X. X X. X X. X X. X X. X X. X X. ",
"OOO.OOOO.OOOO.OOOO.OOOO.OOOO.OOOO.OOOO.OOOO.OOOO.OOOO.OOOO.OOOO.",
"OOoXoOOoXoOOoXoOOoXoOOoXoOOoXoOOoXoOOoXoOOoXoOOoXoOOoXoOOoXoOOoX",
". X X. X X. X X. X X. X X. X X. X X. X X. X X. X X. X X. X X. X ",
"O.OOOO.OOOO.OOOO.OOOO.OOOO.OOOO.OOOO.OOOO.OOOO.OOOO.OOOO.OOOO.OO",
"oXoOOoXoOOoXoOOoXoOOoXoOOoXoOOoXoOOoXoOOoXoOOoXoOOoXoOOoXoOOoXoO",
"X X. X X. X X. X X. X X. X X. X X. X X. X X. X X. X X. X X. X X.",
"OOOO.OOOO.OOOO.OOOO.OOOO.OOOO.OOOO.OOOO.OOOO.OOOO.OOOO.OOOO.OOOO",
"oOOoXoOOoXoOOoXoOOoXoOOoXoOOoXoOOoXoOOoXoOOoXoOOoXoOOoXoOOoXoOOo",
"X. X X. X X. X X. X X. X X. X X. X X. X X. X X. X X. X X. X X. X",
"OO.OOOO.OOOO.OOOO.OOOO.OOOO.OOOO.OOOO.OOOO.OOOO.OOOO.OOOO.OOOO.O",
"OoXoOOoXoOOoXoOOoXoOOoXoOOoXoOOoXoOOoXoOOoXoOOoXoOOoXoOOoXoOOoXo",
" X X. X X. X X. X X. X X. X X. X X. X X. X X. X X. X X. X X. X X",
".OOOO.OOOO.OOOO.OOOO.OOOO.OOOO.OOOO.OOOO.OOOO.OOOO.OOOO.OOOO.OOO",
"XoOOoXoOOoXoOOoXoOOoXoOOoXoOOoXoOOoXoOOoXoOOoXoOOoXoOOoXoOOoXoOO",
" X. X X. X X. X X. X X. X X. X X. X X. X X. X X. X X. X X. X X. ",
"OOO.OOOO.OOOO.OOOO.OOOO.OOOO.OOOO.OOOO.OOOO.OOOO.OOOO.OOOO.OOOO.",
"OOoXoOOoXoOOoXoOOoXoOOoXoOOoXoOOoXoOOoXoOOoXoOOoXoOOoXoOOoXoOOoX",
". X X. X X. X X. X X. X X. X X. X X. X X. X X. X X. X X. X X. X ",
"O.OOOO.OOOO.OOOO.OOOO.OOOO.OOOO.OOOO.OOOO.OOOO.OOOO.OOOO.OOOO.OO",
"oXoOOoXoOOoXoOOoXoOOoXoOOoXoOOoXoOOoXoOOoXoOOoXoOOoXoOOoXoOOoXoO",
"X X. X X. X X. X X. X X. X X. X X. X X. X X. X X. X X. X X. X X.",
"OOOO.OOOO.OOOO.OOOO.OOOO.OOOO.OOOO.OOOO.OOOO.OOOO.OOOO.OOOO.OOOO",
"oOOoXoOOoXoOOoXoOOoXoOOoXoOOoXoOOoXoOOoXoOOoXoOOoXoOOoXoOOoXoOOo",
"X. X X. X X. X X. X X. X X. X X. X X. X X. X X. X X. X X. X X. X",
"OO.OOOO.OOOO.OOOO.OOOO.OOOO.OOOO.OOOO.OOOO.OOOO.OOOO.OOOO.OOOO.O",
"OoXoOOoXoOOoXoOOoXoOOoXoOOoXoOOoXoOOoXoOOoXoOOoXoOOoXoOOoXoOOoXo",
" X X. X X. X X. X X. X X. X X. X X. X X. X X. X X. X X. X X. X X",
".OOOO.OOOO.OOOO.OOOO.OOOO.OOOO.OOOO.OOOO.OOOO.OOOO.OOOO.OOOO.OOO",
"XoOOoXoOOoXoOOoXoOOoXoOOoXoOOoXoOOoXoOOoXoOOoXoOOoXoOOoXoOOoXoOO",
" X. X X. X X. X X. X X. X X. X X. X X. X X. X X. X X. X X. X X. ",
"OOO.OOOO.OOOO.OOOO.OOOO.OOOO.OOOO.OOOO.OOOO.OOOO.OOOO.OOOO.OOOO.",
"OOoXoOOoXoOOoXoOOoXoOOoXoOOoXoOOoXoOOoXoOOoXoOOoXoOOoXoOOoXoOOoX",
". X X. X X. X X. X X. X X. X X. X X. X X. X X. X X. X X. X X. X ",
"O.OOOO.OOOO.OOOO.OOOO.OOOO.OOOO.OOOO.OOOO.OOOO.OOOO.OOOO.OOOO.OO",
"oXoOOoXoOOoXoOOoXoOOoXoOOoXoOOoXoOOoXoOOoXoOOoXoOOoXoOOoXoOOoXoO",
"X X. X X. X X. X X. X X. X X. X X. X X. X X. X X. X X. X X. X X.",
"OOOO.OOOO.OOOO.OOOO.OOOO.OOOO.OOOO.OOOO.OOOO.OOOO.OOOO.OOOO.OOOO",
"oOOoXoOOoXoOOoXoOOoXoOOoXoOOoXoOOoXoOOoXoOOoXoOOoXoOOoXoOOoXoOOo",
"X. X X. X X. X X. X X. X X. X X. X X. X X. X X. X X. X X. X X. X",
"OO.OOOO.OOOO.OOOO.OOOO.OOOO.OOOO.OOOO.OOOO.OOOO.OOOO.OOOO.OOOO.O",
"OoXoOOoXoOOoXoOOoXoOOoXoOOoXoOOoXoOOoXoOOoXoOOoXoOOoXoOOoXoOOoXo",
" X X. X X. X X. X X. X X. X X. X X. X X. X X. X X. X X. X X. X X",
".OOOO.OOOO.OOOO.OOOO.OOOO.OOOO.OOOO.OOOO.OOOO.OOOO.OOOO.OOOO.OOO",
"XoOOoXoOOoXoOOoXoOOoXoOOoXoOOoXoOOoXoOOoXoOOoXoOOoXoOOoXoOOoXoOO",
" X. X X. X X. X X. X X. X X. X X. X X. X X. X X. X X. X X. X X. ",
"OOO.OOOO.OOOO.OOOO.OOOO.OOOO.OOOO.OOOO.OOOO.OOOO.OOOO.OOOO.OOOO.",
"OOoXoOOoXoOOoXoOOoXoOOoXoOOoXoOOoXoOOoXoOOoXoOOoXoOOoXoOOoXoOOoX",
". X X. X X. X X. X X. X X. X X. X X. X X. X X. X X. X X. X X. X ",
"O.OOOO.OOOO.OOOO.OOOO.OOOO.OOOO.OOOO.OOOO.OOOO.OOOO.OOOO.OOOO.OO",
"oXoOOoXoOOoXoOOoXoOOoXoOOoXoOOoXoOOoXoOOoXoOOoXoOOoXoOOoXoOOoXoO",
"X X. X X. X X. X X. X X. X X. X X. X X. X X. X X. X X. X X. X X.",
"OOOO.OOOO.OOOO.OOOO.OOOO.OOOO.OOOO.OOOO.OOOO.OOOO.OOOO.OOOO.OOOO"
};
