/* XPM */
static char * wall_4_xpm[] = {
"32 32 8 1",
" 	c None",
".	c #414141",
"+	c #4A4A4A",
"@	c #575757",
"#	c #606060",
"$	c #656565",
"%	c #6D6D6D",
"&	c #696969",
"..+++++++++++++...+++++++++++++.",
".+@#$$$$$$$$$#@+.+@#$$$$$$$$$#@+",
"+@$%%%%%%%&&$$#@+@$%%%%%%%&&$$#@",
"+@%%&&&&&&&$$$#@+@%%&&&&&&&$$$#@",
"+@%&&&&&$$$$$$#@+@%&&&&&$$$$$$#@",
"+@$&&&&$$$$$$$#@+@$&&&&$$$$$$$#@",
".@$$$$$$$$$$$$#@.@$$$$$$$$$$$$#@",
".+@@@@@@@@@@@@@+.+@@@@@@@@@@@@@+",
"+++++++...+++++++++++++...++++++",
"$$$$$#@+.+@#$$$$$$$$$#@+.+@#$$$$",
"%%%&&$#@+@$%%%%%%%%&&$#@+@$%%%%%",
"&&&&&&#@+@%&&&&&&&&&&&#@+@%&&&&&",
"&&&$$$#@+@&&&&&&&&&$$$#@+@&&&&&&",
"$$$$$$#@+@$&&&&$$$$$$$#@+@$&&&&$",
"$$$$$$#@.@$$$$$$$$$$$$#@.@$$$$$$",
"@@@@@@@+.+@@@@@@@@@@@@@+.+@@@@@@",
"..+++++++++++++...+++++++++++++.",
".+@#$$$$$$$$$#@+.+@#$$$$$$$$$#@+",
"+@$%%%%%%%%&&$#@+@$%%%%%%%%&&$#@",
"+@%&&&&&&&&&&&#@+@%&&&&&&&&&&&#@",
"+@&&&&&&$$$$$$#@+@&&&&&&$$$$$$#@",
"+@$&&$$$$$$$$$#@+@$&&$$$$$$$$$#@",
".@$$$$$$$$$$$$#@.@$$$$$$$$$$$$#@",
".+@@@@@@@@@@@@@+.+@@@@@@@@@@@@@+",
"+++++++...+++++++++++++...++++++",
"$$$$$#@+.+@#$$$$$$$$$#@+.+@#$$$$",
"%%%&&$#@+@$%%%%%%%%&&$#@+@$%%%%%",
"&&&&&&#@+@%&&&&&&&&&&&#@+@%&&&&&",
"&&&$$$#@+@&&&&&&&&&$$$#@+@&&&&&&",
"$$$$$$#@+@$&&&&$$$$$$$#@+@$&&&&$",
"$$$$$$#@.@$$$$$$$$$$$$#@.@$$$$$$",
"@@@@@@@+.+@@@@@@@@@@@@@+.+@@@@@@"};
